Subj06run_81
version=1
nRows=31
nColumns=19
inDegrees=no
endheader
time	l_ground_force_vx	l_ground_force_vy	l_ground_force_vz	l_ground_force_px	l_ground_force_py	l_ground_force_pz	ground_force_vx	ground_force_vy	ground_force_vz	ground_force_px	ground_force_py	ground_force_pz	l_ground_torque_x	l_ground_torque_y	l_ground_torque_z	ground_torque_x	ground_torque_y	ground_torque_z	
43.78	0	0	0	0	0	0	0	0	0	0	0	0	0	0	0	0	0	0
43.79	0	0	0	0	0	0	0	0	0	0	0	0	0	0	0	0	0	0
43.8	0	0	0	0	0	0	0	0	0	0	0	0	0	0	0	0	0	0
43.81	0	0	0	0	0	0	0	0	0	0	0	0	0	0	0	0	0	0
43.82	0	0	0	0	0	0	0	0	0	0	0	0	0	0	0	0	0	0
43.83	0	0	0	0	0	0	0	0	0	0	0	0	0	0	0	0	0	0
43.84	-16.7998633492153	57.5976626216111	16.2706556919616	0.0617434430714284	0	0.00317825810712369	0	0	0	0	0	0	0	2.53454345508719	0	0	0	0
43.85	-20.0037269558026	147.602825714612	24.3160618028944	0.0171787577273778	0	-0.0155089552492002	0	0	0	0	0	0	0	3.14576271365814	0	0	0	0
43.86	-16.2480484049135	283.346749271829	35.3928144789084	0.00992041705230813	0	-0.0232874901289205	-0.776249422840663	44.9347037735222	-12.5780669663549	-0.0372638746429233	0	-0.107639758066297	0	2.7476106031451	0	0	0.994589501567822	0
43.87	-13.2030231991938	438.996210848332	45.5848909180768	0.010703530927845	0	-0.0276417944851757	-5.50084715706494	107.576555263391	-15.2240894568604	-0.0204756487294689	0	-0.0439191576911319	0	1.80107556417144	0	0	1.58780430261765	0
43.88	-17.5613259766407	563.492972790491	48.8123613939701	0.0129304188450767	0	-0.0302023677537669	-12.6742513877532	182.433524341287	-19.5133633151088	-0.00298637030637085	0	-0.0203273545467283	0	1.29735390494894	0	0	2.06530323371258	0
43.89	-28.0342814847777	641.608403506809	47.8206075065803	0.0144101525495598	0	-0.0322663724895846	-22.848642193933	248.082811538548	-23.100394672432	0.0115310334014146	0	-0.00906539815680837	0	1.54776503393011	0	0	2.23212243932396	0
43.9	-41.944972554882	699.020208498712	50.3044989550237	0.0129867536021785	0	-0.0346889413780887	-37.3885157447727	299.463724320262	-21.9341014907691	0.0213411166193024	0	-0.00229966346845609	0	2.47007437441843	0	0	1.74774963194646	0
43.91	-52.0404325401541	754.960580490938	54.5602840715516	0.00681807855044836	0	-0.0370076386350108	-52.3311448106475	340.675345374282	-18.3053224749164	0.0236174847297172	0	0.00148251219953036	0	4.02782286026849	0	0	0.79021903030773	0
43.92	-54.8741221372774	813.77024035482	59.0561744316268	-0.00498967364998204	0	-0.0384564767764128	-63.5335363734886	376.839859295536	-14.7133358190677	0.0166879358672929	0	0.00273144264272323	0	5.88099682376829	0	0	-0.438188554112005	0
43.93	-49.174540368005	868.299985984559	62.1072917394484	-0.0215154093725144	0	-0.03865577576208	-68.6422575944648	409.448298115346	-12.6550196943288	0.0016714480503052	0	0.00189010344344259	0	7.52679063004898	0	0	-1.69401468786136	0
43.94	-36.1955945165878	910.472428383969	63.3647536789338	-0.0413594607152302	0	-0.0378710397855585	-67.3692971315489	436.835419783033	-12.5087153923606	-0.018850724160649	0	-0.000177672091050473	0	8.5041869799523	0	0	-2.58343321508108	0
43.95	-18.7258785808415	935.061617953476	63.7986048136684	-0.0631321397243763	0	-0.0366513567352848	-58.7979466612539	457.25715841939	-13.2565806503606	-0.0412096089641161	0	-0.00227879976866601	0	8.62524122129527	0	0	-2.73394651699368	0
43.96	1.08516646850944	939.737072714976	63.9132386976123	-0.0852351158740193	0	-0.0354475601650506	-43.5293469154013	469.679418869568	-14.5850353883495	-0.0618152482309835	0	-0.00364189546168727	0	8.10031524211012	0	0	-2.03014502862568	0
43.97	22.191094600049	923.880990848374	64.4544466061797	-0.105889356331435	0	-0.0346475557051363	-25.9110416894179	474.263726577392	-16.1486580866838	-0.07877078049202	0	-0.00372540218276185	0	7.14776307282391	0	0	-0.837845814575968	0
43.98	42.2269660152637	887.710772818709	64.70081007066	-0.123992448111588	0	-0.0345082390773351	-9.64209847438184	472.332430058948	-18.3164340270379	-0.0923056619777659	0	-0.00248394560285579	0	6.01163514870297	0	0	0.264690517845476	0
43.99	56.8689491430619	833.773843892336	63.8987355019508	-0.139405620285074	0	-0.0350903671818823	5.30786068343822	465.091049974017	-21.0607644416523	-0.103869045629222	0	-0.000165002680330167	0	5.07138300168636	0	0	0.793759588019874	0
44	64.2306685440843	765.449325718305	62.0143457083462	-0.152526143253277	0	-0.0362134609043894	18.9252322822695	452.200016877785	-24.0301028786139	-0.115508037380551	0	0.00247669467532976	0	4.83953204754414	0	0	0.493670570213789	0
44.01	65.9651521335544	685.288600247335	59.2980830147173	-0.164291875591784	0	-0.0374406571400653	29.4743883027556	432.019461905749	-27.1625169413517	-0.129761641841126	0	0.00450616195938945	0	5.4913939594711	0	0	-0.592726189173008	0
44.02	63.6475197889069	595.481306924414	56.201791004367	-0.176672674687884	0	-0.0381109015483952	37.2506785366946	402.333575255227	-30.2939429128244	-0.149006195359355	0	0.00488864075868319	0	6.76203544991094	0	0	-1.97874463028754	0
44.03	57.9894684840891	499.032609814647	53.3583499909526	-0.192449182846095	0	-0.0374842700452656	44.760288670916	362.083129966823	-33.023727244415	-0.174073446879331	0	0.00294000073819775	0	8.2233215953685	0	0	-3.1239890877999	0
44.04	50.7054991601377	400.339180483072	50.8438171220596	-0.214155785815504	0	-0.0346567642441739	52.3954446478796	312.677796712872	-34.9768238572649	-0.204317730379994	0	-0.00154540564532716	0	9.40652639416686	0	0	-3.7486655246138	0
44.05	45.0909193189446	305.238025251677	48.0834442586276	-0.243239733505448	0	-0.0288588452790984	58.0669405492338	257.981920550276	-35.7806079627833	-0.238167578619678	0	-0.00828205142601374	0	9.6409123645492	0	0	-3.66700161502864	0
44.06	42.2406532557705	220.078950451689	44.7508788926572	-0.280541467622148	0	-0.0193160109223717	60.4623919580457	202.924055497006	-35.2618935422633	-0.271725616317414	0	-0.0165462381979391	0	8.65012594004737	0	0	-2.81820615668255	0
44.07	40.6692594517601	149.999984022816	40.6224946823196	-0.325803751990161	0	-0.00566414725593315	60.0450070979012	152.278563176473	-33.3973522568904	-0.296760405683117	0	-0.0249596602553284	0	6.57953597427471	0	0	-1.42563344778826	0
44.08	38.3245612301987	97.3133433611727	35.5711729870106	-0.371114320188848	0	0.0118941442618762	56.688402702229	109.408366610707	-30.2037148045289	-0.299197097332385	0	-0.0317648058639821	0	4.01217137428037	0	0	-0.0246200373007384	0
